<svg xmlns="http://www.w3.org/2000/svg" xmlns:xlink="http://www.w3.org/1999/xlink" version="1.1" width="485.211" height="485.211" style="enable-background:new 0 0 485.211 485.211;" xml:space="preserve"><rect id="backgroundrect" width="100%" height="100%" x="0" y="0" fill="none" stroke="none"/>
















<g class="currentLayer" style=""><title>Layer 1</title><g id="svg_1" class="selected" fill="#7a5c3c" fill-opacity="1">
	<g id="svg_2" fill="#7a5c3c" fill-opacity="1">
		<path d="M318.423,303.258c11.696,0,22.271-4.56,30.322-11.817c8.056,7.258,18.631,11.817,30.331,11.817    c25.109,0,45.485-20.376,45.485-45.485c0-25.114-20.376-45.49-45.485-45.49c-11.7,0-22.275,4.562-30.331,11.815    c-8.051-7.252-18.626-11.815-30.322-11.815c-25.118,0-45.49,20.376-45.49,45.49C272.933,282.882,293.305,303.258,318.423,303.258z    " id="svg_3" fill="#7a5c3c" fill-opacity="1"/>
		<path d="M454.889,60.651H90.978c-16.762,0-30.327,13.565-30.327,30.327v90.978h30.327h151.629h212.282v151.629H242.606v30.321    h212.282c16.759,0,30.322-13.562,30.322-30.321V90.978C485.211,74.216,471.647,60.651,454.889,60.651z M454.889,121.305H90.978    V90.978h363.911V121.305z" id="svg_4" fill="#7a5c3c" fill-opacity="1"/>
		<path d="M106.139,212.282C47.504,212.282,0,259.784,0,318.416C0,377.059,47.504,424.56,106.139,424.56    c58.64,0,106.144-47.501,106.144-106.144C212.282,259.784,164.778,212.282,106.139,212.282z M84.7,382.747l-53.604-53.605    l21.438-21.44l32.166,32.16l75.042-75.042l21.443,21.441L84.7,382.747z" id="svg_5" fill="#7a5c3c" fill-opacity="1"/>
	</g>
</g><g id="svg_6">
</g><g id="svg_7">
</g><g id="svg_8">
</g><g id="svg_9">
</g><g id="svg_10">
</g><g id="svg_11">
</g><g id="svg_12">
</g><g id="svg_13">
</g><g id="svg_14">
</g><g id="svg_15">
</g><g id="svg_16">
</g><g id="svg_17">
</g><g id="svg_18">
</g><g id="svg_19">
</g><g id="svg_20">
</g></g></svg>