<svg xmlns="http://www.w3.org/2000/svg" width="22.494" height="20.653"><rect id="backgroundrect" width="100%" height="100%" x="0" y="0" fill="none" stroke="none"/><g class="currentLayer" style=""><title>Layer 1</title><g data-name="Layer 2" id="Layer_2" class="selected" fill="#7a5c3c" fill-opacity="1"><g data-name="Layer 1" id="Layer_1-2" fill="#7a5c3c" fill-opacity="1"><path d="M17.61,18.269864870905877 a0.3410000000000001,0.3410000000000001 0 0 1 0,-0.6810000000000002 A0.3410000000000001,0.3410000000000001 0 0 1 17.61,18.269864870905877 zm-0.544,-4.849 H15.338000000000001 a0.3410000000000001,0.3410000000000001 0 0 0 0,0.6810000000000002 h1.7280000000000002 A0.3410000000000001,0.3410000000000001 0 0 0 17.066,13.420864870905877 zm5.428,-0.036000000000000004 v3.636 a1.25,1.25 0 0 1 -1.249,1.249 H20.2 a2.614,2.614 0 0 1 -5.176,0 H8.382 a2.614,2.614 0 0 1 -5.177,0 H1.25 A1.251,1.251 0 0 1 0,17.020864870905875 V12.475864870905877 c0.006000000000000002,-0.524 0.808,-0.29400000000000004 1.364,-0.3410000000000001 V0.20586487090587624 A0.3410000000000001,0.3410000000000001 0 0 1 1.705,-0.13513512909412384 h9.088 a0.3410000000000001,0.3410000000000001 0 0 1 0.3410000000000001,0.3410000000000001 V12.134864870905876 h1.5910000000000002 V5.204864870905876 A0.3430000000000001,0.3430000000000001 0 0 1 13.066,4.864864870905876 h3.045 a2.6100000000000003,2.6100000000000003 0 0 1 2.4,1.584 l2.053,4.791 A2.16,2.16 0 0 1 22.494,13.384864870905876 zM10.452,1.2388648709058763 l-3.779,5.1 l3.779,5.1 zm-4.2,5.674 L2.3810000000000002,12.134864870905876 h7.736 zM2.3810000000000002,0.5468648709058763 L6.249,5.7648648709058765 L10.117,0.5468648709058763 zm-0.3360000000000001,10.9 l3.7800000000000002,-5.1 l-3.7800000000000002,-5.1 zm3.748,4.555 a1.932,1.932 0 0 0 0,3.863 A1.932,1.932 0 0 0 5.793,15.997864870905875 zm6.932,1.5910000000000002 V15.543864870905876 H8.975 a0.3410000000000001,0.3410000000000001 0 1 1 0,-0.6820000000000002 h3.75 V12.816864870905876 H0.6810000000000002 V14.864864870905876 H2.612 a0.3410000000000001,0.3410000000000001 0 1 1 0,0.6820000000000002 H0.6810000000000002 v1.477 a0.5690000000000001,0.5690000000000001 0 0 0 0.5690000000000001,0.5680000000000001 H3.205 a2.614,2.614 0 0 1 5.177,0 zm2.954,-7.7490000000000006 a1.3880000000000001,1.3880000000000001 0 0 0 1.387,1.3860000000000001 h2.753 L17.886,6.7168648709058765 a2.067,2.067 0 0 0 -2.207,-1.171 zm1.931,6.158 a1.932,1.932 0 0 0 0,3.863 A1.932,1.932 0 0 0 17.61,15.997864870905875 zm4.2,0 H20.648 a0.3410000000000001,0.3410000000000001 0 1 1 0,-0.6820000000000002 h1.165 V14.101864870905876 H20.648 a0.3410000000000001,0.3410000000000001 0 1 1 0,-0.6810000000000002 h1.165 a1.48,1.48 0 0 0 -1.477,-1.513 h-3.27 A2.071,2.071 0 0 1 15,9.839864870905876 V5.545864870905876 H13.406 V17.588864870905876 h1.6150000000000002 a2.614,2.614 0 0 1 5.176,0 h1.047 C22.048,17.564864870905875 21.766000000000002,16.501864870905877 21.813,15.997864870905875 zM5.793,17.588864870905876 a0.3410000000000001,0.3410000000000001 0 0 0 0,0.6810000000000002 A0.3410000000000001,0.3410000000000001 0 0 0 5.793,17.588864870905876 z" data-name="special delivery" id="special_delivery" fill="#7a5c3c" fill-opacity="1"/></g></g></g></svg>