<svg version="1.2" xmlns="http://www.w3.org/2000/svg" viewBox="0 0 368 52" width="368" height="52"><style>.a{fill:#b6935d}</style><path fill-rule="evenodd" class="a" d="m346.6 20.5q-1.1-0.3-2.1-0.7 1.1 0.3 2.1 0.7zm-24.8 3.7c-4 2.4-7.9 5.1-11.8 7.7-4.1 2.8-8.4 5.1-13.4 5.7-7.9 0.9-14.2-1.7-18.5-9-2.7 4.6-6.9 6.5-11.7 7.2-4.8 0.7-9.3 0-13.3-2.8-10.3 8-21.7 8-33.2 4.5-7.9-2.4-15.4-6-23.1-8.8-6-2.2-12-4.5-18.2-6.2-2.8-0.7-5.9-0.1-8.7-0.1 0.7 2.8 1.8 5.3 2.1 7.8 0.5 4.9-3.3 8.6-8 8.1-2.8-0.4-4.4-2.1-4.4-5.1 0.1-4.1 2-7.2 5.1-9.8 0.6-0.5 1.2-0.9 2-1.5-3.3-3-7.1-4.4-11.2-5.1-5.7-1.1-11.2-0.4-16.5 2.3-4 2.1-3 1.9-5.2 3.3-1.2 0.7-1.9 1.1-2.7 1.5-4.4 2.5-8.7 5.5-13.4 7.2-6.1 2.3-12.1 1.4-17.3-3.2-0.4 0.2-0.8 0.3-1.2 0.6-13.7 9.7-29.3 13-45.8 12.7-10.5-0.1-20.7-1.9-30.1-6.7-0.4-0.2-0.8-0.4-1.1-0.6-4.3-3-8.5-5.7-14-6.2-3.9-0.3-6.3-3.4-6.9-7.3-0.4-2.9-0.4-6-0.6-9q0.4-0.2 0.8-0.5c3.9 2.4 8.1 4.6 11.8 7.4 1.2 1 1.7 3.7 1.6 5.5-0.1 3.2 1.3 4.9 3.7 6.4 6.8 4.5 14.5 6.7 22.4 7.9 7 1 14 1 21.1 0.6 8.9-0.4 17.4-1.9 25.6-5.2 4.1-1.7 8-4 11.8-6-0.6-2.4-1.3-4.1-1.3-5.9 0-1.6 0.6-3.2 1.3-4.6 1-2 2.9-2.5 4.9-1.6 2 0.9 3.2 3 2.3 4.8-1.2 2.4-3 4.5-4.8 7.2 2.2 2.3 5.3 3.7 9 3.6 4.3 0 8.3-1.3 11.9-3.4 4.8-2.8 9.4-5.9 14.2-8.5 10.3-5.6 20.3-5.4 30 1.4 0.5 0.4 1.4 0.6 1.9 0.4 8.1-3.6 16-1.9 23.7 1.2 9.2 3.7 18.2 7.9 27.3 11.8 7.7 3.2 15.6 4.3 23.7 2.4 3.1-0.8 6-1.8 8.3-4.1-0.8-1.3-1.7-2.4-2.3-3.7-0.6-1.4-1-2.8-1.1-4.3-0.2-2.4 1.5-4.1 3.7-4.2 2.2-0.2 4.5 1.5 4.2 3.9-0.2 2.8-1.3 5.6-2 8.7 6.1 5.5 19.5 2.6 23.8-5.8 1.6 4.2 4.7 6.4 8.7 7.6 3.9 1.2 7.9 1.1 11.7-0.1 3.7-1.3 6.8-3.6 10.2-5.7 9.2-5.6 18.5-11.8 30.1-10.5 1.9 0.2 3.8 0.9 5.7 1.6-8.2-2.2-15.6 0.3-22.8 4.5zm-161.1 8.9c-0.1 3.2 1.6 4.7 4.8 4.2 2.5-0.5 4.3-2 5.2-4.4 1.1-3.1 0.1-5.8-1.5-8.4-0.8-1.2-1.6-1.5-2.9-0.7-3.6 2.1-5.4 5.1-5.6 9.3zm91.8-1.7c2.1-1.9 3.4-4.9 3.3-7.4-0.1-1.9-1.3-3.3-3.1-3.3-1.9 0-3.1 1.2-3.2 3.3 0 2.8 0.8 5.3 3 7.4zm-151.4-5c1.6-2.3 3.2-4.2 4.3-6.4 0.7-1.4 0.2-3-1.5-3.7-1.6-0.7-2.8 0-3.7 1.4-1.5 2.7-1.4 5.4 0.9 8.7z"/><path class="a" d="m346.6 20.5c0.9-0.2 1.9-0.3 2.8-0.7 7.6-3.1 12.8-1 16 6.6 0.7 1.6 1.2 3.2 1.9 5.1-4.3-0.4-8.2-0.8-12.2-1.4-3-0.4-4.5-2.6-5.6-5.3-0.7-1.5-1.9-2.9-2.9-4.3 0 0 0 0 0 0z"/><path class="a" d="m25.3 33c-6.7-3.8-6.8-11-1.3-16.4 1 1.4 2 3 3 4.4q4.7 6.7-1.7 12z"/><path class="a" d="m15.3 51.2c-2.7-7.2 1.9-12.8 9.6-13.3-0.1 1.7-0.4 3.5-0.5 5.3q-0.7 8.1-9.1 8z"/><path class="a" d="m334.5 20.6c7.5-0.2 11.6 5.2 9.9 12.9-1.4-0.6-2.7-1.2-4.1-1.7-5.7-2.1-7.2-4.9-5.8-11.2z"/><path class="a" d="m335.4 16.7c-5.2-5.4-3.9-12 3-15.9 0.4 1.4 0.9 2.8 1.4 4.1 2.3 5.7 1.2 8.6-4.4 11.8z"/><path class="a" d="m5 40.1c0.3-2.9 0.2-5.8 3.2-7.4 3.1-1.6 6.3-1.2 9.3 0.3-1.7 6.7-6.9 7-12.5 7.1z"/><path class="a" d="m31.2 34c0.2-2.9 0.2-5.9 3.2-7.4 3.1-1.6 6.2-1.2 9.2 0.3-1.6 6.7-6.9 7-12.4 7.1z"/><path class="a" d="m351.7 6.6c1.9 7.3-2.5 12.1-9.4 10.4-0.5-6.6 4.3-8.5 9.4-10.4z"/><path class="a" d="m330.5 23.3c1.9 7.3-2.5 12.1-9.4 10.3-0.5-6.6 4.3-8.5 9.4-10.3z"/></svg>